<?xml version="1.0" encoding="utf-8"?><svg width="24" height="24" fill="none" xmlns="http://www.w3.org/2000/svg" viewBox="0 0 24 24"><path d="M15 12.51h.5v-2h1v2.5c0 .277-.223.5-.5.5H8a.5.5 0 01-.5-.5v-2.5h1v2H15z" fill="#2C2C2C" stroke="#2C2C2C"/><path d="M2.922 6.309l-.013-.01 2.4-3.192.001-.001a1.506 1.506 0 011.198-.597h11c.471 0 .922.226 1.202.603h0l2.395 3.204-.012.01.294.394c.08.109.113.203.113.29v11c0 .827-.673 1.5-1.5 1.5H4c-.827 0-1.5-.673-1.5-1.5v-11c0-.088.033-.183.115-.292l.307-.41zM6.508 3.51h-.25l-.15.2-1.504 2-.602.8h15.999l-.598-.8-1.494-2-.15-.2H6.508zM3.5 18.01v.5h17.002v-.5l-.002-10v-.5h-17v10.5z" fill="#2C2C2C" stroke="#2C2C2C"/></svg>