<?xml version="1.0" encoding="utf-8"?><svg viewBox="0 0 30 36" xmlns="http://www.w3.org/2000/svg" xmlns:xlink="http://www.w3.org/1999/xlink"><style>:root>svg{display:none}:root>svg:target{display:block}</style><svg fill="none" viewBox="0 0 24 24" id="archive" xmlns="http://www.w3.org/2000/svg"><path d="M15 12.51h.5v-2h1v2.5c0 .277-.223.5-.5.5H8a.5.5 0 01-.5-.5v-2.5h1v2H15z" fill="#2C2C2C" stroke="#2C2C2C"/><path d="M2.922 6.309l-.013-.01 2.4-3.192.001-.001a1.506 1.506 0 011.198-.597h11c.471 0 .922.226 1.202.603h0l2.395 3.204-.012.01.294.394c.08.109.113.203.113.29v11c0 .827-.673 1.5-1.5 1.5H4c-.827 0-1.5-.673-1.5-1.5v-11c0-.088.033-.183.115-.292l.307-.41zM6.508 3.51h-.25l-.15.2-1.504 2-.602.8h15.999l-.598-.8-1.494-2-.15-.2H6.508zM3.5 18.01v.5h17.002v-.5l-.002-10v-.5h-17v10.5z" fill="#2C2C2C" stroke="#2C2C2C"/></svg><svg fill="none" viewBox="0 0 9 8" id="check" xmlns="http://www.w3.org/2000/svg"><path d="M1.25 4.75L3.5 7 8 1" stroke="#fff" stroke-width="1.5" stroke-linecap="round" stroke-linejoin="round"/></svg><svg fill="none" viewBox="0 0 24 24" id="download" xmlns="http://www.w3.org/2000/svg"><path d="M4 12v7h16v-7M12 3.5v10M12 13.5l3.375-3.374M12 13.5l-3.375-3.374" stroke="#fff" stroke-width="2" stroke-linecap="round" stroke-linejoin="round"/></svg><svg fill="none" viewBox="0 0 30 36" id="range" xmlns="http://www.w3.org/2000/svg"><path d="M25.608 25.606c5.857-5.857 5.857-15.355 0-21.213-5.858-5.858-15.355-5.857-21.214 0-5.858 5.858-5.858 15.354-.001 21.213L15 36l10.6-10.387.007-.007z" fill="#18A0FB"/></svg><svg fill="none" viewBox="0 0 24 24" id="search" xmlns="http://www.w3.org/2000/svg"><path fill-rule="evenodd" clip-rule="evenodd" d="M11 7a4 4 0 100 8 4 4 0 000-8zm-6 4a6 6 0 1110.89 3.476l3.817 3.817a1 1 0 01-1.414 1.414l-3.816-3.816A6 6 0 015 11z" fill="#fff"/></svg><svg fill="none" viewBox="0 0 10 10" id="tag" xmlns="http://www.w3.org/2000/svg"><path fill-rule="evenodd" clip-rule="evenodd" d="M.293.293a1 1 0 011.414 0L5 3.586 8.293.293a1 1 0 111.414 1.414L6.414 5l3.293 3.293a1 1 0 01-1.414 1.414L5 6.414 1.707 9.707A1 1 0 01.293 8.293L3.586 5 .293 1.707a1 1 0 010-1.414z" fill="#2C2C2C"/></svg><svg fill="none" viewBox="0 0 11 6" id="triangle" xmlns="http://www.w3.org/2000/svg"><path d="M6.001 5.293l4.44-4.44A.5.5 0 0010.086 0H.5a.5.5 0 00-.354.854l4.44 4.439a1 1 0 001.414 0z" fill="#000"/></svg><svg fill="none" viewBox="0 0 12 6" id="vector" xmlns="http://www.w3.org/2000/svg"><path d="M5.293 5.707l-4.44-4.44a.5.5 0 01.354-.853h9.586a.5.5 0 01.353.854L6.707 5.707a1 1 0 01-1.414 0z" fill="#2C2C2C"/></svg></svg>